<?xml version="1.0" encoding="utf-8"?>
<!-- Generator: Adobe Illustrator 26.3.1, SVG Export Plug-In . SVG Version: 6.00 Build 0)  -->
<svg version="1.1" id="Layer_1" xmlns="http://www.w3.org/2000/svg" xmlns:xlink="http://www.w3.org/1999/xlink" x="0px" y="0px"
	 viewBox="0 0 24 24" style="enable-background:new 0 0 24 24;" xml:space="preserve">
<style type="text/css">
	.st0{fill:#EB1F1F;}
</style>
<path class="st0" d="M11.457,17.503c0.935-0.117,1.854-0.401,2.672-0.868c2.021-1.136,3.19-3.073,3.29-5.461l0.017-0.2h2.806
	c-0.167-1.386-0.701-2.706-1.52-3.841l-2.873,1.82c0.868,1.319,0.985,2.99,0.317,4.409C15.382,15.165,13.528,16.735,11.457,17.503"
	/>
<path class="st0" d="M20.276,11.39h-2.438c-0.167,2.422-1.436,4.459-3.507,5.612c-1.203,0.651-2.539,1.002-3.908,0.985
	c-1.086,0-2.171-0.2-3.19-0.585c1.219,0.785,2.656,1.203,4.109,1.203h0.017c2.622,0,5.027-1.42,6.296-3.724l0.117-0.2l1.637,1.035
	c0.585-1.152,0.902-2.438,0.902-3.741C20.292,11.791,20.292,11.591,20.276,11.39"/>
<path class="st0" d="M11.357,19.04L11.357,19.04c-2.622,0-5.077-1.303-6.831-3.524c1.937,4.142,6.881,5.929,11.006,3.975
	c1.537-0.718,2.823-1.904,3.674-3.374l-1.269-0.802C16.551,17.637,14.063,19.056,11.357,19.04"/>
<path class="st0" d="M12.008,20.71c-4.81,0-8.718-3.908-8.718-8.718s3.908-8.718,8.718-8.718s8.718,3.908,8.718,8.718l0,0l0,0
	C20.727,16.802,16.835,20.71,12.008,20.71C12.025,20.71,12.025,20.71,12.008,20.71L12.008,20.71L12.008,20.71 M12.008,0
	C5.378,0,0,5.361,0,11.992S5.361,24,11.992,24S24,18.639,24,12.008v-0.017C24,5.378,18.639,0,12.025,0l0,0H12.008"/>
</svg>
